# xmcd CD database file
#
# Track frame offsets:
#	150
#	15335
#	29815
#	44020
#	56313
#	71533
#	84283
#	97415
#	111105
#	128450
#	143158
#	157055
#
# Disc length: 2242 seconds
#
# Revision: 0
# Processed by: cddbd v1.4PL0 Copyright (c) Steve Scherf et al.
# Submitted via: CDex 1.40Release
#
DISCID=a008c00c
DTITLE=Ostfriesische Jungs - Ostfriesen-Polonaise
DYEAR=1900
DGENRE=Country
TTITLE0=Insel meiner Träume
TTITLE1=Ostfriesen-Polonaise
TTITLE2=Stammlokal
TTITLE3=Ostfreeske Gemütlichkeit
TTITLE4=Ostfriesland, meine Heimat
TTITLE5=Ein Seemann hat immer Sehnsucht
TTITLE6=Ostfriesische Jungs
TTITLE7=Wie ne Kneipe ohne Bier
TTITLE8=Mien Ostfreesenland
TTITLE9=Mutterhände
TTITLE10=Der alte Lumpensammler
TTITLE11=Good-bye, alter Johnny
EXTD=ID3G: 2
EXTT0=
EXTT1=
EXTT2=
EXTT3=
EXTT4=
EXTT5=
EXTT6=
EXTT7=
EXTT8=
EXTT9=
EXTT10=
EXTT11=
PLAYORDER=
